<svg width="42" height="42" viewBox="0 0 42 42" fill="none" xmlns="http://www.w3.org/2000/svg">
<g id="AVATAR OC">
<path id="Vector" d="M21 42C32.598 42 42 32.598 42 21C42 9.40202 32.598 0 21 0C9.40202 0 0 9.40202 0 21C0 32.598 9.40202 42 21 42Z" fill="url(#paint0_linear_1318_13092)"/>
<g id="Group">
<path id="Vector_2" d="M16.7658 23.106H12.1101C10.9631 23.106 10.0332 24.0358 10.0332 25.1828V29.8386C10.0332 30.9856 10.9631 31.9154 12.1101 31.9154H16.7658C17.9128 31.9154 18.8427 30.9856 18.8427 29.8386V25.1828C18.8427 24.0358 17.9128 23.106 16.7658 23.106Z" fill="black"/>
<path id="Vector_3" d="M14.2551 15.8936H12.7537C11.6018 15.8936 10.668 16.8274 10.668 17.9793V19.4806C10.668 20.6326 11.6018 21.5664 12.7537 21.5664H14.2551C15.407 21.5664 16.3408 20.6326 16.3408 19.4806V17.9793C16.3408 16.8274 15.407 15.8936 14.2551 15.8936Z" fill="black"/>
<path id="Vector_4" d="M21.0965 19.2173H19.3464C18.2555 19.2173 17.3711 20.1017 17.3711 21.1926V22.9427C17.3711 24.0337 18.2555 24.9181 19.3464 24.9181H21.0965C22.1875 24.9181 23.0719 24.0337 23.0719 22.9427V21.1926C23.0719 20.1017 22.1875 19.2173 21.0965 19.2173Z" fill="black"/>
<path id="Vector_5" d="M24.2385 26.3667H22.8107C21.6726 26.3667 20.75 27.2893 20.75 28.4274V29.8552C20.75 30.9933 21.6726 31.9159 22.8107 31.9159H24.2385C25.3766 31.9159 26.2992 30.9933 26.2992 29.8552V28.4274C26.2992 27.2893 25.3766 26.3667 24.2385 26.3667Z" fill="black"/>
<path id="Vector_6" d="M18.3545 10.084H17.4875C16.4567 10.084 15.6211 10.9196 15.6211 11.9504V12.8174C15.6211 13.8481 16.4567 14.6838 17.4875 14.6838H18.3545C19.3853 14.6838 20.2209 13.8481 20.2209 12.8174V11.9504C20.2209 10.9196 19.3853 10.084 18.3545 10.084Z" fill="black"/>
<path id="Vector_7" d="M24.7831 14.1172H24.0795C23.0788 14.1172 22.2676 14.9284 22.2676 15.9291V16.6327C22.2676 17.6334 23.0788 18.4447 24.0795 18.4447H24.7831C25.7838 18.4447 26.595 17.6334 26.595 16.6327V15.9291C26.595 14.9284 25.7838 14.1172 24.7831 14.1172Z" fill="black"/>
<path id="Vector_8" d="M30.3085 11.7456H30.0495C29.1333 11.7456 28.3906 12.4883 28.3906 13.4045V13.6635C28.3906 14.5797 29.1333 15.3224 30.0495 15.3224H30.3085C31.2247 15.3224 31.9674 14.5797 31.9674 13.6635V13.4045C31.9674 12.4883 31.2247 11.7456 30.3085 11.7456Z" fill="black"/>
<path id="Vector_9" d="M27.8437 19.7783H27.5846C26.6685 19.7783 25.9258 20.521 25.9258 21.4372V21.6962C25.9258 22.6124 26.6685 23.3551 27.5846 23.3551H27.8437C28.7599 23.3551 29.5026 22.6124 29.5026 21.6962V21.4372C29.5026 20.521 28.7599 19.7783 27.8437 19.7783Z" fill="black"/>
</g>
</g>
<defs>
<linearGradient id="paint0_linear_1318_13092" x1="6.15119" y1="35.8488" x2="35.8488" y2="6.15119" gradientUnits="userSpaceOnUse">
<stop offset="0.37" stop-color="#FF6200"/>
<stop offset="0.42" stop-color="#F96B1E"/>
<stop offset="0.54" stop-color="#EF805E"/>
<stop offset="0.66" stop-color="#E69192"/>
<stop offset="0.76" stop-color="#DF9FBC"/>
<stop offset="0.86" stop-color="#DBA9D9"/>
<stop offset="0.94" stop-color="#D8AEEB"/>
<stop offset="1" stop-color="#D7B1F2"/>
</linearGradient>
</defs>
</svg>
