<svg width="80" height="80" viewBox="0 0 80 80" fill="none" xmlns="http://www.w3.org/2000/svg">
<g id="Mask group">
<mask id="mask0_3251_4217" style="mask-type:luminance" maskUnits="userSpaceOnUse" x="0" y="0" width="80" height="80">
<g id="Group">
<path id="Vector" d="M80 40C80 17.9086 62.0914 0 40 0C17.9086 0 0 17.9086 0 40C0 62.0914 17.9086 80 40 80C62.0914 80 80 62.0914 80 40Z" fill="white"/>
</g>
</mask>
<g mask="url(#mask0_3251_4217)">
<g id="Group_2">
<path id="Vector_2" d="M80 0H0V80H80V0Z" fill="#D2B2ED"/>
<path id="Vector_3" d="M79.5896 75.0221C89.8594 52.9983 80.331 26.8192 58.3072 16.5493C36.2835 6.27946 10.1043 15.8079 -0.165516 37.8316C-10.4354 59.8554 -0.906936 86.0345 21.1168 96.3044C43.1406 106.574 69.3197 97.0458 79.5896 75.0221Z" fill="#EF8846"/>
<g id="Group_3">
<path id="Vector_4" d="M26.3223 54.5703C26.1296 56.772 27.1111 58.9856 29.0507 60.7241C30.9903 62.4626 33.7292 63.5835 36.6648 63.8403C39.6004 64.0972 42.4924 63.4689 44.7044 62.0936C46.9164 60.7184 48.2673 58.7088 48.4599 56.5071" fill="black"/>
<path id="Vector_5" d="M32.8242 43.9857C32.9312 42.7631 32.2746 41.7069 31.3576 41.6267C30.4406 41.5465 29.6106 42.4726 29.5036 43.6952C29.3966 44.9178 30.0533 45.974 30.9702 46.0542C31.8872 46.1345 32.7173 45.2084 32.8242 43.9857Z" fill="black"/>
<path id="Vector_6" d="M46.1074 45.1478C46.2144 43.9252 45.5578 42.869 44.6408 42.7888C43.7238 42.7086 42.8938 43.6347 42.7868 44.8573C42.6798 46.08 43.3365 47.1361 44.2534 47.2163C45.1704 47.2966 46.0005 46.3705 46.1074 45.1478Z" fill="black"/>
</g>
</g>
</g>
</g>
</svg>
