<svg width="80" height="80" viewBox="0 0 80 80" fill="none" xmlns="http://www.w3.org/2000/svg">
<g clip-path="url(#clip0_3378_8034)">
<mask id="mask0_3378_8034" style="mask-type:luminance" maskUnits="userSpaceOnUse" x="0" y="0" width="80" height="80">
<path d="M80 40C80 17.9086 62.0914 0 40 0C17.9086 0 0 17.9086 0 40C0 62.0914 17.9086 80 40 80C62.0914 80 80 62.0914 80 40Z" fill="white"/>
</mask>
<g mask="url(#mask0_3378_8034)">
<path d="M80 0H0V80H80V0Z" fill="#9ACEF5"/>
<path d="M35.4272 73.2785C57.4884 72.1223 74.4352 53.301 73.279 31.2399C72.1228 9.17874 53.3015 -7.76806 31.2404 -6.61188C9.17925 -5.45571 -7.76755 13.3656 -6.61138 35.4267C-5.4552 57.4879 13.3661 74.4347 35.4272 73.2785Z" fill="#CBE87C"/>
<path d="M18.0977 40.7959C22.7798 42.4599 27.1911 41.9183 31.3316 39.171" stroke="black" stroke-width="2.22222" stroke-linecap="round"/>
<path d="M13.7063 32.3795C13.5567 31.1614 12.6948 30.2648 11.7812 30.377C10.8676 30.4891 10.2482 31.5676 10.3978 32.7857C10.5473 34.0039 11.4092 34.9005 12.3228 34.7883C13.2365 34.6761 13.8558 33.5977 13.7063 32.3795Z" fill="black"/>
<path d="M35.7629 29.6713C35.6133 28.4531 34.7515 27.5565 33.8378 27.6687C32.9242 27.7809 32.3048 28.8593 32.4544 30.0775C32.604 31.2956 33.4659 32.1922 34.3795 32.08C35.2931 31.9678 35.9125 30.8894 35.7629 29.6713Z" fill="black"/>
</g>
</g>
<defs>
<clipPath id="clip0_3378_8034">
<rect width="80" height="80" fill="white"/>
</clipPath>
</defs>
</svg>
