<svg width="80" height="80" viewBox="0 0 80 80" fill="none" xmlns="http://www.w3.org/2000/svg">
<g clip-path="url(#clip0_3378_7977)">
<mask id="mask0_3378_7977" style="mask-type:luminance" maskUnits="userSpaceOnUse" x="0" y="0" width="80" height="80">
<path d="M80 40C80 17.9086 62.0914 0 40 0C17.9086 0 0 17.9086 0 40C0 62.0914 17.9086 80 40 80C62.0914 80 80 62.0914 80 40Z" fill="white"/>
</mask>
<g mask="url(#mask0_3378_7977)">
<path d="M80 0H0V80H80V0Z" fill="#CBE87C"/>
<path d="M7.77618 72.2996L56.413 105.106C63.1284 109.635 72.2442 107.863 76.7738 101.148L109.58 52.511C114.109 45.7957 112.337 36.6799 105.622 32.1503L56.9852 -0.655656C50.2698 -5.18522 41.154 -3.41328 36.6244 3.30207L3.81846 51.9389C-0.711104 58.6543 1.06083 67.7701 7.77618 72.2996Z" fill="#626260"/>
<path d="M38.1152 54.0979C38.2694 56.3027 39.585 58.3355 41.7727 59.7491C43.9604 61.1627 46.8409 61.8414 49.7806 61.6359C52.7203 61.4303 55.4783 60.3573 57.4479 58.653C59.4176 56.9486 60.4375 54.7525 60.2833 52.5478" fill="white"/>
<path d="M34.0154 43.2463C33.9298 42.0219 33.116 41.0815 32.1978 41.1457C31.2795 41.2099 30.6046 42.2545 30.6902 43.4788C30.7758 44.7031 31.5896 45.6435 32.5078 45.5793C33.426 45.5151 34.101 44.4706 34.0154 43.2463Z" fill="white"/>
<path d="M65.0505 41.0761C64.9649 39.8518 64.1512 38.9113 63.2329 38.9755C62.3147 39.0397 61.6397 40.0843 61.7253 41.3086C61.8109 42.5329 62.6247 43.4734 63.5429 43.4092C64.4612 43.3449 65.1362 42.3004 65.0505 41.0761Z" fill="white"/>
</g>
</g>
<defs>
<clipPath id="clip0_3378_7977">
<rect width="80" height="80" fill="white"/>
</clipPath>
</defs>
</svg>
