<svg width="80" height="80" viewBox="0 0 80 80" fill="none" xmlns="http://www.w3.org/2000/svg">
<g id="Mask group">
<mask id="mask0_3251_2849" style="mask-type:luminance" maskUnits="userSpaceOnUse" x="0" y="0" width="80" height="80">
<g id="Group">
<path id="Vector" d="M80 40C80 17.9086 62.0914 0 40 0C17.9086 0 0 17.9086 0 40C0 62.0914 17.9086 80 40 80C62.0914 80 80 62.0914 80 40Z" fill="white"/>
</g>
</mask>
<g mask="url(#mask0_3251_2849)">
<g id="Group_2">
<path id="Vector_2" d="M80 0H0V80H80V0Z" fill="#CBE87C"/>
<path id="Vector_3" d="M7.77618 72.2992L56.413 105.105C63.1284 109.635 72.2442 107.863 76.7738 101.147L109.58 52.5106C114.109 45.7952 112.337 36.6794 105.622 32.1498L56.9852 -0.656144C50.2698 -5.1857 41.154 -3.41377 36.6244 3.30158L3.81846 51.9384C-0.711104 58.6538 1.06083 67.7696 7.77618 72.2992Z" fill="#626260"/>
<g id="Group_3">
<path id="Vector_4" d="M38.1152 54.0977C38.2694 56.3024 39.585 58.3352 41.7727 59.7488C43.9604 61.1625 46.8409 61.8412 49.7806 61.6356C52.7203 61.4301 55.4783 60.3571 57.4479 58.6527C59.4176 56.9484 60.4375 54.7523 60.2833 52.5475" fill="white"/>
<path id="Vector_5" d="M34.0154 43.246C33.9298 42.0217 33.116 41.0812 32.1978 41.1455C31.2795 41.2097 30.6046 42.2542 30.6902 43.4785C30.7758 44.7028 31.5896 45.6433 32.5078 45.5791C33.426 45.5149 34.101 44.4703 34.0154 43.246Z" fill="white"/>
<path id="Vector_6" d="M65.0505 41.0756C64.9649 39.8513 64.1512 38.9108 63.2329 38.975C62.3147 39.0393 61.6397 40.0838 61.7253 41.3081C61.8109 42.5324 62.6247 43.4729 63.5429 43.4087C64.4612 43.3445 65.1362 42.2999 65.0505 41.0756Z" fill="white"/>
</g>
</g>
</g>
</g>
</svg>
