<svg width="80" height="80" viewBox="0 0 80 80" fill="none" xmlns="http://www.w3.org/2000/svg">
<g clip-path="url(#clip0_3378_8056)">
<mask id="mask0_3378_8056" style="mask-type:luminance" maskUnits="userSpaceOnUse" x="0" y="0" width="80" height="80">
<path d="M80 40C80 17.9086 62.0914 0 40 0C17.9086 0 0 17.9086 0 40C0 62.0914 17.9086 80 40 80C62.0914 80 80 62.0914 80 40Z" fill="white"/>
</mask>
<g mask="url(#mask0_3378_8056)">
<path d="M80 0H0V80H80V0Z" fill="#9ACEF5"/>
<path d="M68.8883 83.5298C88.02 72.4841 94.575 48.0205 83.5293 28.8888C72.4836 9.75711 48.02 3.20211 28.8883 14.2478C9.75657 25.2935 3.20157 49.7571 14.2473 68.8888C25.293 88.0205 49.7566 94.5755 68.8883 83.5298Z" fill="#D1B3ED"/>
<path d="M20 42.2222C20 44.4323 21.1706 46.5519 23.2544 48.1147C25.3381 49.6775 28.1643 50.5555 31.1111 50.5555C34.058 50.5555 36.8841 49.6775 38.9679 48.1147C41.0516 46.5519 42.2222 44.4323 42.2222 42.2222" fill="black"/>
<path d="M25.556 33.3333C25.556 32.106 24.8098 31.1111 23.8893 31.1111C22.9688 31.1111 22.2227 32.106 22.2227 33.3333C22.2227 34.5606 22.9688 35.5555 23.8893 35.5555C24.8098 35.5555 25.556 34.5606 25.556 33.3333Z" fill="black"/>
<path d="M38.888 33.3333C38.888 32.106 38.1418 31.1111 37.2214 31.1111C36.3009 31.1111 35.5547 32.106 35.5547 33.3333C35.5547 34.5606 36.3009 35.5555 37.2214 35.5555C38.1418 35.5555 38.888 34.5606 38.888 33.3333Z" fill="black"/>
</g>
</g>
<defs>
<clipPath id="clip0_3378_8056">
<rect width="80" height="80" fill="white"/>
</clipPath>
</defs>
</svg>
