<svg width="80" height="80" viewBox="0 0 80 80" fill="none" xmlns="http://www.w3.org/2000/svg">
<mask id="mask0_3378_7991" style="mask-type:luminance" maskUnits="userSpaceOnUse" x="0" y="0" width="80" height="80">
<path d="M80 40C80 17.9086 62.0914 0 40 0C17.9086 0 0 17.9086 0 40C0 62.0914 17.9086 80 40 80C62.0914 80 80 62.0914 80 40Z" fill="white"/>
</mask>
<g mask="url(#mask0_3378_7991)">
<path d="M80 0H0V80H80V0Z" fill="#FFFF7D"/>
<path d="M20.0552 60.913L70.7782 77.3939C77.7816 79.6695 85.3037 75.8368 87.5792 68.8334L104.06 18.1104C106.336 11.107 102.503 3.58495 95.4996 1.30941L44.7766 -15.1715C37.7732 -17.447 30.2511 -13.6144 27.9756 -6.61097L11.4947 44.112C9.21915 51.1154 13.0518 58.6375 20.0552 60.913Z" fill="#EF8846"/>
<path d="M42.5977 40.9062C47.3081 42.4883 51.7093 41.8698 55.8012 39.0506" stroke="white" stroke-width="2.22222" stroke-linecap="round"/>
<path d="M35.8582 32.8771C35.6874 31.6617 34.81 30.7803 33.8985 30.9084C32.987 31.0365 32.3865 32.1256 32.5573 33.341C32.7281 34.5563 33.6055 35.4377 34.517 35.3096C35.4286 35.1815 36.029 34.0924 35.8582 32.8771Z" fill="white"/>
<path d="M62.2645 29.1659C62.0937 27.9505 61.2163 27.0691 60.3047 27.1972C59.3932 27.3253 58.7928 28.4144 58.9636 29.6298C59.1344 30.8452 60.0118 31.7265 60.9233 31.5984C61.8348 31.4703 62.4353 30.3812 62.2645 29.1659Z" fill="white"/>
</g>
</svg>
