<svg width="80" height="80" viewBox="0 0 80 80" fill="none" xmlns="http://www.w3.org/2000/svg">
<g clip-path="url(#clip0_3378_7979)">
<mask id="mask0_3378_7979" style="mask-type:luminance" maskUnits="userSpaceOnUse" x="0" y="0" width="80" height="80">
<path d="M80 40C80 17.9086 62.0914 0 40 0C17.9086 0 0 17.9086 0 40C0 62.0914 17.9086 80 40 80C62.0914 80 80 62.0914 80 40Z" fill="white"/>
</mask>
<g mask="url(#mask0_3378_7979)">
<path d="M80 0H0V80H80V0Z" fill="#D1E789"/>
<path d="M106.819 27.955L54.3935 -8.75393C47.1551 -13.8224 37.1783 -12.0632 32.1099 -4.82472L-4.59901 47.601C-9.66745 54.8395 -7.90829 64.8162 -0.669804 69.8847L51.7559 106.594C58.9944 111.662 68.9712 109.903 74.0396 102.664L110.748 50.2386C115.817 43.0001 114.058 33.0234 106.819 27.955Z" fill="#D1B3ED"/>
<path d="M39.4434 41.6157C43.6772 44.2168 48.1047 44.6042 52.726 42.7778" stroke="black" stroke-width="2.22222" stroke-linecap="round"/>
<path d="M41.7129 28.4301C41.8199 27.2074 41.1632 26.1513 40.2463 26.071C39.3293 25.9908 38.4992 26.9169 38.3923 28.1395C38.2853 29.3622 38.9419 30.4183 39.8589 30.4986C40.7759 30.5788 41.6059 29.6527 41.7129 28.4301Z" fill="black"/>
<path d="M54.9961 29.5922C55.1031 28.3695 54.4464 27.3134 53.5295 27.2332C52.6125 27.1529 51.7824 28.079 51.6755 29.3017C51.5685 30.5243 52.2251 31.5805 53.1421 31.6607C54.0591 31.7409 54.8891 30.8148 54.9961 29.5922Z" fill="black"/>
</g>
</g>
<defs>
<clipPath id="clip0_3378_7979">
<rect width="80" height="80" fill="white"/>
</clipPath>
</defs>
</svg>
