<svg width="80" height="80" viewBox="0 0 80 80" fill="none" xmlns="http://www.w3.org/2000/svg">
<g clip-path="url(#clip0_3378_8089)">
<mask id="mask0_3378_8089" style="mask-type:luminance" maskUnits="userSpaceOnUse" x="0" y="0" width="80" height="80">
<path d="M80 40C80 17.9086 62.0914 0 40 0C17.9086 0 0 17.9086 0 40C0 62.0914 17.9086 80 40 80C62.0914 80 80 62.0914 80 40Z" fill="white"/>
</mask>
<g mask="url(#mask0_3378_8089)">
<path d="M80 0H0V80H80V0Z" fill="#405059"/>
<path d="M4.21396 78.2992L67.0381 90.511C75.7123 92.1971 84.111 86.5321 85.7971 77.8579L98.0089 15.0338C99.695 6.35958 94.03 -2.03911 85.3558 -3.7252L22.5316 -15.937C13.8574 -17.6231 5.45873 -11.9581 3.77264 -3.28388L-8.43914 59.5403C-10.1252 68.2145 -4.46024 76.6131 4.21396 78.2992Z" fill="#EF8846"/>
<path d="M49.0059 46.7822C53.4884 48.9265 57.9322 48.849 62.3372 46.5495" stroke="black" stroke-width="2.22222" stroke-linecap="round"/>
<path d="M47.6626 33.4703C47.6412 32.2432 46.8778 31.2615 45.9574 31.2776C45.0371 31.2936 44.3084 32.3014 44.3298 33.5285C44.3512 34.7556 45.1147 35.7374 46.035 35.7213C46.9553 35.7053 47.684 34.6975 47.6626 33.4703Z" fill="black"/>
<path d="M65.438 33.1603C65.4166 31.9332 64.6532 30.9514 63.7328 30.9675C62.8125 30.9836 62.0838 31.9914 62.1052 33.2185C62.1266 34.4456 62.8901 35.4273 63.8104 35.4113C64.7307 35.3952 65.4594 34.3874 65.438 33.1603Z" fill="black"/>
</g>
</g>
<defs>
<clipPath id="clip0_3378_8089">
<rect width="80" height="80" fill="white"/>
</clipPath>
</defs>
</svg>
