<svg width="80" height="80" viewBox="0 0 80 80" fill="none" xmlns="http://www.w3.org/2000/svg">
<g clip-path="url(#clip0_3378_8067)">
<mask id="mask0_3378_8067" style="mask-type:luminance" maskUnits="userSpaceOnUse" x="0" y="0" width="80" height="80">
<path d="M80 40C80 17.9086 62.0914 0 40 0C17.9086 0 0 17.9086 0 40C0 62.0914 17.9086 80 40 80C62.0914 80 80 62.0914 80 40Z" fill="white"/>
</mask>
<g mask="url(#mask0_3378_8067)">
<path d="M80 0H0V80H80V0Z" fill="#D1E789"/>
<path d="M21.8683 85.0199C48.3739 84.5572 69.4859 62.6951 69.0233 36.1895C68.5606 9.68384 46.6985 -11.4282 20.1928 -10.9655C-6.31278 -10.5028 -27.4248 11.3593 -26.9621 37.8649C-26.4995 64.3705 -4.63735 85.4825 21.8683 85.0199Z" fill="#616260"/>
<path d="M32.2363 45.4053C36.9737 46.9049 41.3634 46.2096 45.4055 43.3195" stroke="white" stroke-width="2.22222" stroke-linecap="round"/>
<path d="M22.4681 33.4527C22.2761 32.2405 21.3834 31.3746 20.4743 31.5186C19.5651 31.6626 18.9838 32.762 19.1758 33.9742C19.3677 35.1863 20.2604 36.0523 21.1695 35.9083C22.0787 35.7643 22.66 34.6649 22.4681 33.4527Z" fill="white"/>
<path d="M53.1966 28.586C53.0046 27.3738 52.1119 26.5079 51.2028 26.6519C50.2936 26.7959 49.7123 27.8953 49.9043 29.1075C50.0963 30.3197 50.9889 31.1856 51.8981 31.0416C52.8072 30.8976 53.3886 29.7982 53.1966 28.586Z" fill="white"/>
</g>
</g>
<defs>
<clipPath id="clip0_3378_8067">
<rect width="80" height="80" fill="white"/>
</clipPath>
</defs>
</svg>
