<svg width="80" height="80" viewBox="0 0 80 80" fill="none" xmlns="http://www.w3.org/2000/svg">
<g id="Mask group">
<mask id="mask0_3251_4200" style="mask-type:luminance" maskUnits="userSpaceOnUse" x="0" y="0" width="80" height="80">
<g id="Group">
<path id="Vector" d="M80 40C80 17.9086 62.0914 0 40 0C17.9086 0 0 17.9086 0 40C0 62.0914 17.9086 80 40 80C62.0914 80 80 62.0914 80 40Z" fill="white"/>
</g>
</mask>
<g mask="url(#mask0_3251_4200)">
<g id="Group_2">
<path id="Vector_2" d="M0 0H80V40H0V0Z" fill="#EF8846"/>
<path id="Vector_3" d="M0 40H80V80H0V40Z" fill="#FFFF90"/>
<path id="Vector_4" d="M73.7782 39.9999C73.7782 31.0415 70.2195 22.45 63.8849 16.1154C57.5504 9.78089 48.9589 6.22217 40.0004 6.22217C31.042 6.22217 22.4505 9.78089 16.1159 16.1154C9.78138 22.45 6.22266 31.0415 6.22266 39.9999H73.7782Z" fill="#FFFF90"/>
<path id="Vector_5" d="M73.7782 40C73.7782 48.9584 70.2195 57.5499 63.8849 63.8845C57.5504 70.2191 48.9589 73.7778 40.0004 73.7778C31.042 73.7778 22.4505 70.2191 16.1159 63.8845C9.78138 57.5499 6.22266 48.9584 6.22266 40H73.7782Z" fill="#D1E789"/>
<path id="Vector_6" d="M68.4436 40.0001C68.4436 32.4562 65.4468 25.2212 60.1124 19.8868C54.778 14.5525 47.5431 11.5557 39.9991 11.5557C32.4552 11.5557 25.2202 14.5525 19.8859 19.8868C14.5515 25.2212 11.5547 32.4562 11.5547 40.0001H68.4436Z" fill="#D1E789"/>
<path id="Vector_7" d="M68.4436 40C68.4436 47.5439 65.4468 54.7789 60.1124 60.1133C54.778 65.4476 47.5431 68.4444 39.9991 68.4444C32.4552 68.4444 25.2202 65.4476 19.8859 60.1133C14.5515 54.7789 11.5547 47.5439 11.5547 40H68.4436Z" fill="#D1B2EE"/>
<path id="Vector_8" d="M63.1109 39.9998C63.1109 33.8703 60.676 27.9919 56.3418 23.6578C52.0076 19.3236 46.1292 16.8887 39.9998 16.8887C33.8703 16.8887 27.9919 19.3236 23.6578 23.6578C19.3236 27.9919 16.8887 33.8703 16.8887 39.9998H63.1109Z" fill="#D1B2EE"/>
<path id="Vector_9" d="M63.1109 40C63.1109 46.1294 60.676 52.0078 56.3418 56.342C52.0076 60.6762 46.1292 63.1111 39.9998 63.1111C33.8703 63.1111 27.9919 60.6762 23.6578 56.342C19.3236 52.0078 16.8887 46.1294 16.8887 40H63.1109Z" fill="#EF8846"/>
<path id="Vector_10" d="M39.9991 60.4446C51.2903 60.4446 60.4436 51.2913 60.4436 40.0001C60.4436 28.709 51.2903 19.5557 39.9991 19.5557C28.708 19.5557 19.5547 28.709 19.5547 40.0001C19.5547 51.2913 28.708 60.4446 39.9991 60.4446Z" fill="#626260"/>
</g>
</g>
</g>
</svg>
