<svg width="80" height="80" viewBox="0 0 80 80" fill="none" xmlns="http://www.w3.org/2000/svg">
<g clip-path="url(#clip0_3378_8045)">
<mask id="mask0_3378_8045" style="mask-type:luminance" maskUnits="userSpaceOnUse" x="0" y="0" width="80" height="80">
<path d="M80 40C80 17.9086 62.0914 0 40 0C17.9086 0 0 17.9086 0 40C0 62.0914 17.9086 80 40 80C62.0914 80 80 62.0914 80 40Z" fill="white"/>
</mask>
<g mask="url(#mask0_3378_8045)">
<path d="M80 0H0V80H80V0Z" fill="#CBE87C"/>
<path d="M28.7894 105.888C53.0751 105.04 72.0751 84.6652 71.227 60.3794C70.3789 36.0937 50.0039 17.0938 25.7182 17.9418C1.43248 18.7899 -17.5675 39.1649 -16.7194 63.4506C-15.8713 87.7363 4.50364 106.736 28.7894 105.888Z" fill="#D1B3ED"/>
<path d="M28.377 51.7437C28.0694 53.9323 28.9336 56.1942 30.7796 58.0318C32.6255 59.8694 35.302 61.1321 38.2202 61.5423C41.1383 61.9524 44.0592 61.4763 46.3401 60.2187C48.6211 58.9611 50.0753 57.025 50.3829 54.8364" fill="white"/>
<path d="M28.8237 40.5861C28.9945 39.3708 28.394 38.2817 27.4825 38.1536C26.571 38.0255 25.6936 38.9069 25.5228 40.1222C25.352 41.3376 25.9524 42.4267 26.8639 42.5548C27.7754 42.6829 28.6528 41.8015 28.8237 40.5861Z" fill="white"/>
<path d="M55.2299 44.2973C55.4007 43.082 54.8002 41.9929 53.8887 41.8648C52.9772 41.7367 52.0998 42.6181 51.929 43.8334C51.7582 45.0488 52.3587 46.1379 53.2702 46.266C54.1817 46.3941 55.0591 45.5127 55.2299 44.2973Z" fill="white"/>
</g>
</g>
<defs>
<clipPath id="clip0_3378_8045">
<rect width="80" height="80" fill="white"/>
</clipPath>
</defs>
</svg>
