<svg width="80" height="80" viewBox="0 0 80 80" fill="none" xmlns="http://www.w3.org/2000/svg">
<g id="Mask group">
<mask id="mask0_3251_4108" style="mask-type:luminance" maskUnits="userSpaceOnUse" x="0" y="0" width="80" height="80">
<g id="Group">
<path id="Vector" d="M80 40C80 17.9086 62.0914 0 40 0C17.9086 0 0 17.9086 0 40C0 62.0914 17.9086 80 40 80C62.0914 80 80 62.0914 80 40Z" fill="white"/>
</g>
</mask>
<g mask="url(#mask0_3251_4108)">
<g id="Group_2">
<path id="Vector_2" d="M80 0H0V80H80V0Z" fill="#D1B3EE"/>
<path id="Vector_3" d="M90.8189 44.1692L13.918 22.1182L-8.13302 99.0191L68.7679 121.07L90.8189 44.1692Z" fill="#626260"/>
<path id="Vector_4" d="M34 50C42.8366 50 50 42.8366 50 34C50 25.1634 42.8366 18 34 18C25.1634 18 18 25.1634 18 34C18 42.8366 25.1634 50 34 50Z" fill="#EF8846"/>
<path id="Vector_5" d="M18.0781 30.8032L85.922 73.1968" stroke="#FFFF90" stroke-width="2"/>
</g>
</g>
</g>
</svg>
