<svg width="80" height="80" viewBox="0 0 80 80" fill="none" xmlns="http://www.w3.org/2000/svg">
<g id="Mask group">
<mask id="mask0_3251_7633" style="mask-type:luminance" maskUnits="userSpaceOnUse" x="0" y="0" width="80" height="80">
<g id="Group">
<path id="Vector" d="M80 40C80 17.9086 62.0914 0 40 0C17.9086 0 0 17.9086 0 40C0 62.0914 17.9086 80 40 80C62.0914 80 80 62.0914 80 40Z" fill="white"/>
</g>
</mask>
<g mask="url(#mask0_3251_7633)">
<g id="Group_2">
<path id="Vector_2" d="M80 0H0V80H80V0Z" fill="#9ACEF5"/>
<g id="Vector_3" filter="url(#filter0_f_3251_7633)">
<path d="M44.3719 86.6099L70.5463 100.428L101.444 98.2671L94.5107 -0.890754L40.3621 2.89568L31.6232 22.9876L60.8826 58.9462L44.3719 86.6099Z" fill="#D1B3ED"/>
</g>
<g id="Vector_4" style="mix-blend-mode:overlay" filter="url(#filter1_f_3251_7633)">
<path d="M47.5192 47.4352L75.1219 12.5086L49.8991 -38.5151L-39.2237 -30.7259L-26.2595 51.355L4.31201 42.5039L-16.7033 16.2967L11.7986 -25.2633L47.5192 47.4352Z" fill="#405059"/>
</g>
</g>
</g>
</g>
<defs>
<filter id="filter0_f_3251_7633" x="12.023" y="-20.4906" width="109.022" height="140.518" filterUnits="userSpaceOnUse" color-interpolation-filters="sRGB">
<feFlood flood-opacity="0" result="BackgroundImageFix"/>
<feBlend mode="normal" in="SourceGraphic" in2="BackgroundImageFix" result="shape"/>
<feGaussianBlur stdDeviation="9.8" result="effect1_foregroundBlur_3251_7633"/>
</filter>
<filter id="filter1_f_3251_7633" x="-58.8246" y="-58.1151" width="153.546" height="129.07" filterUnits="userSpaceOnUse" color-interpolation-filters="sRGB">
<feFlood flood-opacity="0" result="BackgroundImageFix"/>
<feBlend mode="normal" in="SourceGraphic" in2="BackgroundImageFix" result="shape"/>
<feGaussianBlur stdDeviation="9.8" result="effect1_foregroundBlur_3251_7633"/>
</filter>
</defs>
</svg>
