<svg width="80" height="80" viewBox="0 0 80 80" fill="none" xmlns="http://www.w3.org/2000/svg">
<g clip-path="url(#clip0_3378_7976)">
<mask id="mask0_3378_7976" style="mask-type:luminance" maskUnits="userSpaceOnUse" x="0" y="0" width="80" height="80">
<path d="M80 40C80 17.9086 62.0914 0 40 0C17.9086 0 0 17.9086 0 40C0 62.0914 17.9086 80 40 80C62.0914 80 80 62.0914 80 40Z" fill="white"/>
</mask>
<g mask="url(#mask0_3378_7976)">
<path d="M80 0H0V80H80V0Z" fill="#626260"/>
<path d="M34.9174 -17.9311L6.8616 39.5917C2.9879 47.534 6.28612 57.1127 14.2284 60.9864L71.7512 89.0421C79.6934 92.9158 89.2721 89.6176 93.1458 81.6753L121.202 24.1525C125.075 16.2103 121.777 6.63156 113.835 2.75786L56.312 -25.2979C48.3698 -29.1716 38.791 -25.8734 34.9174 -17.9311Z" fill="#FFFF7D"/>
<path d="M32.6738 37.0442C36.8616 39.7188 41.2817 40.1834 45.9341 38.4379" stroke="black" stroke-width="2.22222" stroke-linecap="round"/>
<path d="M32.9617 23.6679C33.09 22.4473 32.4519 21.3798 31.5364 21.2836C30.621 21.1874 29.7749 22.0988 29.6466 23.3194C29.5183 24.54 30.1564 25.6075 31.0719 25.7037C31.9873 25.7999 32.8334 24.8884 32.9617 23.6679Z" fill="black"/>
<path d="M50.6414 25.5263C50.7697 24.3057 50.1316 23.2382 49.2161 23.142C48.3007 23.0458 47.4546 23.9572 47.3263 25.1778C47.198 26.3984 47.8361 27.4659 48.7516 27.5621C49.667 27.6583 50.5131 26.7468 50.6414 25.5263Z" fill="black"/>
</g>
</g>
<defs>
<clipPath id="clip0_3378_7976">
<rect width="80" height="80" fill="white"/>
</clipPath>
</defs>
</svg>
