<svg width="80" height="80" viewBox="0 0 80 80" fill="none" xmlns="http://www.w3.org/2000/svg">
<g id="Mask group">
<mask id="mask0_3251_3196" style="mask-type:luminance" maskUnits="userSpaceOnUse" x="0" y="0" width="80" height="80">
<g id="Group">
<path id="Vector" d="M80 40C80 17.9086 62.0914 0 40 0C17.9086 0 0 17.9086 0 40C0 62.0914 17.9086 80 40 80C62.0914 80 80 62.0914 80 40Z" fill="white"/>
</g>
</mask>
<g mask="url(#mask0_3251_3196)">
<g id="Group_2">
<path id="Vector_2" d="M80 0H0V80H80V0Z" fill="#626260"/>
<path id="Vector_3" d="M34.9174 -17.9309L6.8616 39.5919C2.9879 47.5342 6.28612 57.1129 14.2284 60.9866L71.7512 89.0424C79.6934 92.916 89.2721 89.6178 93.1458 81.6756L121.202 24.1528C125.075 16.2105 121.777 6.6318 113.835 2.75811L56.312 -25.2976C48.3698 -29.1713 38.791 -25.8731 34.9174 -17.9309Z" fill="#FFFF7D"/>
<g id="Group_3">
<path id="Vector_4" d="M32.6738 37.0449C36.8616 39.7195 41.2817 40.1841 45.9341 38.4386" stroke="black" stroke-width="2.22222" stroke-linecap="round"/>
<path id="Vector_5" d="M32.9617 23.6683C33.09 22.4478 32.4519 21.3803 31.5364 21.2841C30.621 21.1879 29.7749 22.0993 29.6466 23.3199C29.5183 24.5405 30.1564 25.608 31.0719 25.7042C31.9873 25.8004 32.8334 24.8889 32.9617 23.6683Z" fill="black"/>
<path id="Vector_6" d="M50.6414 25.5267C50.7697 24.3062 50.1316 23.2387 49.2161 23.1425C48.3007 23.0463 47.4546 23.9577 47.3263 25.1783C47.198 26.3989 47.8361 27.4664 48.7516 27.5626C49.667 27.6588 50.5131 26.7473 50.6414 25.5267Z" fill="black"/>
</g>
</g>
</g>
</g>
</svg>
