<svg width="80" height="80" viewBox="0 0 80 80" fill="none" xmlns="http://www.w3.org/2000/svg">
<g clip-path="url(#clip0_3378_8100)">
<mask id="mask0_3378_8100" style="mask-type:luminance" maskUnits="userSpaceOnUse" x="0" y="0" width="80" height="80">
<path d="M80 40C80 17.9086 62.0914 0 40 0C17.9086 0 0 17.9086 0 40C0 62.0914 17.9086 80 40 80C62.0914 80 80 62.0914 80 40Z" fill="white"/>
</mask>
<g mask="url(#mask0_3378_8100)">
<path d="M80 0H0V80H80V0Z" fill="#405059"/>
<path d="M-1.2558 41.8295C-1.6799 66.1264 17.6728 86.1666 41.9696 86.5907C66.2664 87.0148 86.3067 67.6622 86.7308 43.3653C87.1549 19.0685 67.8022 -0.971759 43.5054 -1.39586C19.2086 -1.81996 -0.831699 17.5327 -1.2558 41.8295Z" fill="#FFFF7D"/>
<path d="M22.3008 40.1155C26.7833 42.2598 31.2271 42.1822 35.6321 39.8828" stroke="black" stroke-width="2.22222" stroke-linecap="round"/>
<path d="M20.9966 29.0255C20.9752 27.7984 20.2117 26.8167 19.2914 26.8327C18.3711 26.8488 17.6424 27.8566 17.6638 29.0837C17.6852 30.3108 18.4486 31.2926 19.369 31.2765C20.2893 31.2604 21.018 30.2526 20.9966 29.0255Z" fill="black"/>
<path d="M38.772 28.7152C38.7506 27.4881 37.9871 26.5064 37.0668 26.5224C36.1465 26.5385 35.4178 27.5463 35.4392 28.7734C35.4606 30.0005 36.224 30.9823 37.1444 30.9662C38.0647 30.9501 38.7934 29.9423 38.772 28.7152Z" fill="black"/>
</g>
</g>
<defs>
<clipPath id="clip0_3378_8100">
<rect width="80" height="80" fill="white"/>
</clipPath>
</defs>
</svg>
