<svg width="80" height="80" viewBox="0 0 80 80" fill="none" xmlns="http://www.w3.org/2000/svg">
<g clip-path="url(#clip0_3378_8001)">
<mask id="mask0_3378_8001" style="mask-type:luminance" maskUnits="userSpaceOnUse" x="0" y="0" width="80" height="80">
<path d="M80 40C80 17.9086 62.0914 0 40 0C17.9086 0 0 17.9086 0 40C0 62.0914 17.9086 80 40 80C62.0914 80 80 62.0914 80 40Z" fill="white"/>
</mask>
<g mask="url(#mask0_3378_8001)">
<path d="M80 0H0V80H80V0Z" fill="#616260"/>
<path d="M102.219 40.4436C93.5886 15.3782 66.2725 2.05525 41.2072 10.686C16.1418 19.3167 2.81883 46.6327 11.4495 71.6981C20.0802 96.7635 47.3963 110.086 72.4617 101.456C97.5271 92.825 110.85 65.509 102.219 40.4436Z" fill="#CBE87C"/>
<path d="M17.8945 49.0818C17.9331 51.2916 19.1405 53.3905 21.2512 54.9167C23.3619 56.4429 26.203 57.2714 29.1494 57.2199C32.0958 57.1685 34.9062 56.2413 36.9623 54.6424C39.0185 53.0435 40.1519 50.9038 40.1134 48.694" fill="black"/>
<path d="M20.9947 35.6923C20.9732 34.4652 20.2098 33.4834 19.2895 33.4995C18.3691 33.5155 17.6404 34.5233 17.6618 35.7504C17.6832 36.9776 18.4467 37.9593 19.367 37.9432C20.2874 37.9272 21.0161 36.9194 20.9947 35.6923Z" fill="black"/>
<path d="M38.77 35.382C38.7486 34.1549 37.9852 33.1731 37.0649 33.1892C36.1445 33.2052 35.4158 34.213 35.4372 35.4401C35.4586 36.6673 36.2221 37.649 37.1424 37.6329C38.0628 37.6169 38.7915 36.6091 38.77 35.382Z" fill="black"/>
</g>
</g>
<defs>
<clipPath id="clip0_3378_8001">
<rect width="80" height="80" fill="white"/>
</clipPath>
</defs>
</svg>
